<svg width="176" height="113" viewBox="0 0 176 113" fill="none" xmlns="http://www.w3.org/2000/svg">
<g clip-path="url(#clip0_34_114)">
<path d="M154.228 104.333C159.888 98.6766 159.888 89.5058 154.228 83.8495C148.568 78.1932 139.392 78.1932 133.732 83.8495C128.072 89.5058 128.072 98.6766 133.732 104.333C139.392 109.989 148.568 109.989 154.228 104.333Z" fill="#2F2E41"/>
<path d="M143.899 95.4235C146.57 94.8327 148.256 92.1898 147.665 89.5205C147.074 86.8511 144.429 85.1662 141.758 85.7571C139.087 86.3479 137.401 88.9908 137.993 91.6601C138.584 94.3295 141.228 96.0144 143.899 95.4235Z" fill="white"/>
<path d="M141.179 90.9229C142.07 90.726 142.632 89.845 142.434 88.9552C142.237 88.0654 141.356 87.5038 140.465 87.7008C139.575 87.8977 139.013 88.7787 139.21 89.6685C139.407 90.5582 140.289 91.1199 141.179 90.9229Z" fill="#3F3D56"/>
<path d="M143.407 84.2993C137.48 84.2884 133.319 83.2303 133.329 77.8637C133.339 72.4971 138.152 68.1555 144.079 68.1665C150.007 68.1774 154.804 72.5368 154.794 77.9034C154.784 83.27 149.335 84.3102 143.407 84.2993Z" fill="#FF92B9"/>
<path d="M166.696 96.5122C164.996 102.407 160.031 106.533 154.853 110.038C154.13 110.527 153.407 111.005 152.683 111.472C152.678 111.474 152.673 111.479 152.668 111.481C152.634 111.504 152.599 111.526 152.566 111.548C152.417 111.645 152.268 111.741 152.12 111.836L152.201 111.873C152.201 111.873 152.281 111.915 152.193 111.879C152.167 111.868 152.14 111.859 152.114 111.848C149.106 110.635 146.044 109.333 143.739 107.062C141.347 104.703 139.95 101.004 141.245 97.9049C141.415 97.499 141.63 97.1133 141.886 96.7551C141.991 96.6049 142.104 96.4611 142.222 96.32C142.936 95.4488 143.87 94.7833 144.927 94.3922C145.984 94.0011 147.126 93.8984 148.236 94.0946C149.345 94.2908 150.383 94.779 151.241 95.5088C152.1 96.2386 152.748 97.1837 153.12 98.247C153.501 94.7071 150.58 91.7419 147.769 89.554C144.957 87.3672 141.762 84.9858 141.218 81.4655C140.914 79.5069 141.596 77.6088 142.838 76.085C142.876 76.0388 142.914 75.9925 142.954 75.9475C144.465 74.1728 146.591 73.0332 148.906 72.7563C153.218 72.3085 157.406 74.5894 160.539 77.5855C165.58 82.4061 168.628 89.8104 166.696 96.5122Z" fill="#8B2222"/>
<path d="M158.591 88.8026C159.418 90.0893 160.054 91.4897 160.477 92.9597C160.835 94.2735 160.994 95.6334 160.949 96.9943C160.834 99.7947 160.047 102.526 158.656 104.96C157.607 106.806 156.33 108.512 154.853 110.038C154.13 110.527 153.407 111.005 152.683 111.472C152.678 111.474 152.673 111.479 152.668 111.481C152.634 111.504 152.599 111.526 152.566 111.549C152.417 111.645 152.268 111.741 152.12 111.836C152.12 111.836 152.281 111.915 152.193 111.879C152.167 111.869 152.14 111.859 152.114 111.848C152.384 109.639 152.12 107.397 151.344 105.311C150.568 103.225 149.303 101.355 147.656 99.8581C146.004 98.3839 144.027 97.3207 141.886 96.7552C141.991 96.6049 142.104 96.4612 142.222 96.3201C143.049 96.5518 143.853 96.8561 144.627 97.2295C147.391 98.5561 149.654 100.737 151.082 103.449C152.363 105.912 152.914 108.689 152.671 111.454C152.795 111.342 152.918 111.227 153.038 111.114C155.324 108.984 157.355 106.539 158.729 103.718C159.921 101.329 160.507 98.683 160.435 96.014C160.323 93.1038 159.163 90.4083 157.483 88.0616C155.642 85.558 153.466 83.3178 151.018 81.4032C148.55 79.4281 145.85 77.7621 142.978 76.4424C142.913 76.4122 142.862 76.3583 142.836 76.2918C142.81 76.2252 142.811 76.1512 142.838 76.0851C142.857 76.0257 142.899 75.9763 142.954 75.9475C142.982 75.9352 143.013 75.9295 143.044 75.9308C143.075 75.9322 143.106 75.9405 143.133 75.9551C143.488 76.1183 143.84 76.2837 144.189 76.4563C147.099 77.8936 149.819 79.6868 152.287 81.7944C154.67 83.8252 156.914 86.1454 158.591 88.8026Z" fill="white"/>
<path d="M24.8062 112.848C26.8326 112.848 28.4754 112.233 28.4754 111.473C28.4754 110.714 26.8326 110.098 24.8062 110.098C22.7798 110.098 21.1371 110.714 21.1371 111.473C21.1371 112.233 22.7798 112.848 24.8062 112.848Z" fill="#2F2E41"/>
<path d="M33.6121 112.665C35.6385 112.665 37.2813 112.049 37.2813 111.29C37.2813 110.53 35.6385 109.915 33.6121 109.915C31.5857 109.915 29.943 110.53 29.943 111.29C29.943 112.049 31.5857 112.665 33.6121 112.665Z" fill="#2F2E41"/>
<path d="M45.3023 89.5528C48.7695 87.5553 51.0716 85.0541 50.4441 83.9663C49.8167 82.8785 46.4972 83.616 43.03 85.6136C39.5627 87.6111 37.2606 90.1123 37.8881 91.2001C38.5156 92.2879 41.835 91.5504 45.3023 89.5528Z" fill="#2F2E41"/>
<path d="M42.0474 94.4508C43.3296 86.5548 37.964 79.1152 30.0631 77.8338C22.1622 76.5525 14.7178 81.9147 13.4357 89.8107C12.1535 97.7067 17.5191 105.146 25.42 106.428C33.3209 107.709 40.7653 102.347 42.0474 94.4508Z" fill="#2F2E41"/>
<path d="M25.5401 103.498H21.1371V111.382H25.5401V103.498Z" fill="#2F2E41"/>
<path d="M34.3459 103.498H29.943V111.382H34.3459V103.498Z" fill="#2F2E41"/>
<path d="M28.1084 93.4142C30.8441 93.4142 33.0618 91.1979 33.0618 88.4639C33.0618 85.73 30.8441 83.5137 28.1084 83.5137C25.3728 83.5137 23.1551 85.73 23.1551 88.4639C23.1551 91.1979 25.3728 93.4142 28.1084 93.4142Z" fill="white"/>
<path d="M28.1084 90.114C29.0203 90.114 29.7596 89.3752 29.7596 88.4639C29.7596 87.5526 29.0203 86.8138 28.1084 86.8138C27.1966 86.8138 26.4573 87.5526 26.4573 88.4639C26.4573 89.3752 27.1966 90.114 28.1084 90.114Z" fill="#3F3D56"/>
<path d="M13.6828 78.6611C12.5126 73.4235 16.2534 68.1311 22.0382 66.8402C27.8229 65.5493 33.4611 68.7488 34.6313 73.9864C35.8016 79.224 31.9678 81.1557 26.183 82.4466C20.3982 83.7375 14.8531 83.8987 13.6828 78.6611Z" fill="#8B2222"/>
<path d="M17.965 88.5135C18.5034 87.3791 16.0085 85.07 12.3924 83.356C8.77637 81.642 5.40854 81.1723 4.87014 82.3068C4.33174 83.4412 6.82664 85.7503 10.4427 87.4643C14.0587 89.1782 17.4266 89.648 17.965 88.5135Z" fill="#2F2E41"/>
<path d="M20.6226 97.356C20.6226 98.7736 24.2749 101.573 28.3277 101.573C32.3805 101.573 36.1805 97.5818 36.1805 96.1643C36.1805 94.7467 32.3805 96.4393 28.3277 96.4393C24.275 96.4393 20.6226 95.9384 20.6226 97.356Z" fill="white"/>
<path d="M78.2775 112.848C80.3039 112.848 81.9467 112.233 81.9467 111.473C81.9467 110.714 80.3039 110.098 78.2775 110.098C76.2511 110.098 74.6084 110.714 74.6084 111.473C74.6084 112.233 76.2511 112.848 78.2775 112.848Z" fill="#2F2E41"/>
<path d="M69.4717 112.665C71.4981 112.665 73.1408 112.049 73.1408 111.29C73.1408 110.53 71.4981 109.915 69.4717 109.915C67.4453 109.915 65.8025 110.53 65.8025 111.29C65.8025 112.049 67.4453 112.665 69.4717 112.665Z" fill="#2F2E41"/>
<path d="M65.1957 91.2001C65.8232 90.1123 63.5211 87.6111 60.0538 85.6136C56.5866 83.616 53.2671 82.8785 52.6396 83.9663C52.0121 85.0541 54.3142 87.5553 57.7815 89.5528C61.2488 91.5504 64.5682 92.2879 65.1957 91.2001Z" fill="#2F2E41"/>
<path d="M75.3423 106.615C83.3465 106.615 89.8353 100.13 89.8353 92.1307C89.8353 84.1315 83.3465 77.6468 75.3423 77.6468C67.338 77.6468 60.8492 84.1315 60.8492 92.1307C60.8492 100.13 67.338 106.615 75.3423 106.615Z" fill="#2F2E41"/>
<path d="M81.9467 103.498H77.5437V111.382H81.9467V103.498Z" fill="#2F2E41"/>
<path d="M73.1408 103.498H68.7378V111.382H73.1408V103.498Z" fill="#2F2E41"/>
<path d="M71.9467 93.4142C74.6823 93.4142 76.9 91.1979 76.9 88.4639C76.9 85.73 74.6823 83.5137 71.9467 83.5137C69.211 83.5137 66.9933 85.73 66.9933 88.4639C66.9933 91.1979 69.211 93.4142 71.9467 93.4142Z" fill="white"/>
<path d="M70.7531 88.9537C71.4001 88.3077 71.4042 87.2637 70.7624 86.6217C70.1206 85.9797 69.0758 85.9829 68.4289 86.6289C67.782 87.2748 67.7778 88.3189 68.4196 88.9609C69.0614 89.6029 70.1062 89.5997 70.7531 88.9537Z" fill="#3F3D56"/>
<path d="M76.9008 82.4466C71.116 81.1557 67.2822 79.224 68.4525 73.9864C69.6227 68.7488 75.2609 65.5493 81.0456 66.8402C86.8304 68.1311 90.5712 73.4235 89.401 78.6611C88.2307 83.8987 82.6855 83.7375 76.9008 82.4466Z" fill="#FF92B9"/>
<path d="M90.4977 103.171C91.712 102.849 91.8636 99.4541 90.8362 95.5884C89.8088 91.7228 87.9916 88.8504 86.7773 89.1727C85.563 89.4951 85.4115 92.8901 86.4389 96.7557C87.4662 100.621 89.2835 103.494 90.4977 103.171Z" fill="#2F2E41"/>
<path d="M72.0588 96.4395C69.3981 96.4395 66.9033 94.7469 66.9033 96.1645C66.9033 97.5821 69.3981 101.573 72.0588 101.573C74.7196 101.573 77.1174 98.7738 77.1174 97.3562C77.1174 95.9386 74.7196 96.4395 72.0588 96.4395Z" fill="white"/>
<path d="M53.3289 68.1158H52.0418C50.8888 68.1145 49.7835 67.6562 48.9682 66.8414C48.1529 66.0267 47.6943 64.922 47.693 63.7697V62.6899C47.693 60.0151 48.2001 57.7756 49.2003 56.0335C50.4124 54.007 51.8265 52.1082 53.4209 50.3661C54.4795 49.3023 55.4399 48.1453 56.2907 46.9093C56.9011 45.949 57.2163 44.8308 57.1971 43.6933C57.1971 41.0102 55.4479 39.7059 51.8496 39.7059C49.8535 39.7284 47.8701 40.0259 45.9554 40.59C45.217 40.8006 44.4397 40.8371 43.6848 40.6966C42.9298 40.5561 42.2179 40.2424 41.6048 39.7802C40.9918 39.318 40.4945 38.7199 40.1521 38.033C39.8096 37.3461 39.6314 36.5892 39.6313 35.8217V33.6357C39.6271 32.6947 39.8961 31.7726 40.4057 30.9813C40.9154 30.19 41.6438 29.5634 42.5026 29.1775C45.8842 27.7352 49.531 27.0183 53.2073 27.0729C57.0586 27.0729 60.5351 27.7194 63.5408 28.9942C66.5519 30.272 68.9309 32.0737 70.6115 34.3495C72.2871 36.6093 73.1777 39.3544 73.1476 42.1668C73.1476 45.1868 72.3225 47.8172 70.6955 49.9848C69.0862 52.1304 66.7792 54.4793 63.8386 56.9667C62.2892 58.2544 60.821 59.6366 59.4424 61.1055C58.552 62.064 57.9227 63.2349 57.6147 64.5061C57.4432 65.5172 56.9184 66.4348 56.1337 67.0958C55.3489 67.7567 54.3551 68.1181 53.3289 68.1158V68.1158Z" fill="#FF92B9"/>
<path d="M52.6133 88.5539H52.4436C50.3068 88.5525 48.258 87.7032 46.7476 86.1928C45.2372 84.6823 44.3887 82.6343 44.3887 80.4989C44.3887 78.3634 45.2372 76.3154 46.7476 74.8049C48.258 73.2945 50.3068 72.4452 52.4436 72.4438H52.6133C53.6722 72.4432 54.7209 72.651 55.6994 73.0555C56.6778 73.46 57.567 74.0532 58.316 74.8013C59.065 75.5493 59.6591 76.4375 60.0645 77.4151C60.4699 78.3927 60.6786 79.4406 60.6786 80.4989C60.6786 81.5571 60.4699 82.605 60.0645 83.5826C59.6591 84.5602 59.065 85.4484 58.316 86.1965C57.567 86.9445 56.6778 87.5377 55.6994 87.9422C54.7209 88.3467 53.6722 88.5546 52.6133 88.5539Z" fill="#FF92B9"/>
<path d="M104.994 113H0.33652C0.247269 113 0.161679 112.965 0.0985693 112.902C0.0354596 112.838 0 112.753 0 112.664C0 112.575 0.0354596 112.489 0.0985693 112.426C0.161679 112.363 0.247269 112.327 0.33652 112.327H104.994C105.084 112.327 105.169 112.363 105.232 112.426C105.295 112.489 105.331 112.575 105.331 112.664C105.331 112.753 105.295 112.838 105.232 112.902C105.169 112.965 105.084 113 104.994 113Z" fill="#2F2E41"/>
<path d="M175.663 113H119.801C119.712 113 119.626 112.965 119.563 112.902C119.5 112.838 119.465 112.753 119.465 112.664C119.465 112.575 119.5 112.489 119.563 112.426C119.626 112.363 119.712 112.327 119.801 112.327H175.663C175.753 112.327 175.838 112.363 175.901 112.426C175.965 112.489 176 112.575 176 112.664C176 112.753 175.965 112.838 175.901 112.902C175.838 112.965 175.753 113 175.663 113Z" fill="#2F2E41"/>
<path d="M140.992 103.176C144.993 103.098 148.217 102.017 148.193 100.762C148.168 99.5064 144.904 98.5522 140.903 98.6304C136.902 98.7086 133.678 99.7896 133.702 101.045C133.727 102.3 136.991 103.255 140.992 103.176Z" fill="#2F2E41"/>
<path d="M137.355 50.1101H128.605C128.159 50.1096 127.731 49.9323 127.416 49.6171C127.1 49.3018 126.923 48.8744 126.922 48.4286V39.6845C126.923 39.2387 127.1 38.8113 127.416 38.4961C127.731 38.1808 128.159 38.0035 128.605 38.003H137.355C137.801 38.0035 138.228 38.1808 138.544 38.4961C138.859 38.8113 139.037 39.2387 139.037 39.6845V48.4286C139.037 48.8744 138.859 49.3018 138.544 49.6171C138.228 49.9323 137.801 50.1096 137.355 50.1101ZM128.605 38.6756C128.337 38.6759 128.081 38.7823 127.891 38.9714C127.702 39.1606 127.596 39.417 127.595 39.6845V48.4286C127.596 48.6961 127.702 48.9525 127.891 49.1417C128.081 49.3308 128.337 49.4372 128.605 49.4375H137.355C137.622 49.4372 137.879 49.3308 138.068 49.1417C138.257 48.9525 138.364 48.6961 138.364 48.4286V39.6845C138.364 39.417 138.257 39.1606 138.068 38.9714C137.879 38.7823 137.622 38.6759 137.355 38.6756H128.605Z" fill="#8B2222"/>
<path d="M141.393 44.3929H132.643C132.197 44.3923 131.769 44.215 131.454 43.8998C131.139 43.5845 130.961 43.1571 130.961 42.7113V33.9673C130.961 33.5214 131.139 33.094 131.454 32.7788C131.769 32.4635 132.197 32.2862 132.643 32.2857H141.393C141.839 32.2862 142.267 32.4635 142.582 32.7788C142.897 33.094 143.075 33.5214 143.075 33.9673V42.7113C143.075 43.1571 142.897 43.5845 142.582 43.8998C142.267 44.215 141.839 44.3923 141.393 44.3929V44.3929ZM132.643 32.9583C132.376 32.9586 132.119 33.065 131.93 33.2542C131.74 33.4433 131.634 33.6998 131.634 33.9673V42.7113C131.634 42.9788 131.74 43.2353 131.93 43.4244C132.119 43.6136 132.376 43.7199 132.643 43.7202H141.393C141.66 43.7199 141.917 43.6136 142.106 43.4244C142.296 43.2353 142.402 42.9788 142.402 42.7113V33.9673C142.402 33.6998 142.296 33.4433 142.106 33.2542C141.917 33.065 141.66 32.9586 141.393 32.9583H132.643Z" fill="#8B2222"/>
<path d="M72.4061 16.4792H63.6566C63.2105 16.4786 62.7828 16.3013 62.4674 15.9861C62.152 15.6708 61.9745 15.2434 61.974 14.7976V6.05356C61.9745 5.60774 62.152 5.18033 62.4674 4.86509C62.7828 4.54985 63.2105 4.37252 63.6566 4.37201H72.4061C72.8522 4.37252 73.2799 4.54985 73.5953 4.86509C73.9108 5.18033 74.0882 5.60774 74.0887 6.05356V14.7976C74.0882 15.2434 73.9108 15.6708 73.5953 15.9861C73.2799 16.3013 72.8522 16.4786 72.4061 16.4792V16.4792ZM63.6566 5.04463C63.389 5.04492 63.1323 5.15131 62.9431 5.34046C62.7538 5.52961 62.6473 5.78606 62.6471 6.05356V14.7976C62.6473 15.0651 62.7538 15.3216 62.9431 15.5107C63.1323 15.6998 63.389 15.8062 63.6566 15.8065H72.4061C72.6738 15.8062 72.9304 15.6998 73.1197 15.5107C73.3089 15.3216 73.4154 15.0651 73.4157 14.7976V6.05356C73.4154 5.78606 73.3089 5.52961 73.1197 5.34046C72.9304 5.15131 72.6738 5.04492 72.4061 5.04463H63.6566Z" fill="#8B2222"/>
<path d="M67.0218 12.1071H58.2723C57.8262 12.1066 57.3985 11.9293 57.0831 11.6141C56.7676 11.2988 56.5902 10.8714 56.5897 10.4256V1.68155C56.5902 1.23573 56.7676 0.808323 57.0831 0.493082C57.3985 0.177841 57.8262 0.000510031 58.2723 0H67.0218C67.4679 0.000510031 67.8956 0.177841 68.211 0.493082C68.5265 0.808323 68.7039 1.23573 68.7044 1.68155V10.4256C68.7039 10.8714 68.5265 11.2988 68.211 11.6141C67.8956 11.9293 67.4679 12.1066 67.0218 12.1071V12.1071ZM58.2723 0.672619C58.0046 0.672911 57.748 0.779302 57.5587 0.96845C57.3695 1.1576 57.263 1.41405 57.2627 1.68155V10.4256C57.263 10.6931 57.3695 10.9495 57.5587 11.1387C57.748 11.3278 58.0046 11.4342 58.2723 11.4345H67.0218C67.2895 11.4342 67.5461 11.3278 67.7354 11.1387C67.9246 10.9495 68.0311 10.6931 68.0314 10.4256V1.68155C68.0311 1.41405 67.9246 1.1576 67.7354 0.96845C67.5461 0.779302 67.2895 0.672911 67.0218 0.672619H58.2723Z" fill="#8B2222"/>
<path d="M108.097 63.7768C109.299 63.7768 110.273 62.803 110.273 61.6019C110.273 60.4007 109.299 59.427 108.097 59.427C106.895 59.427 105.921 60.4007 105.921 61.6019C105.921 62.803 106.895 63.7768 108.097 63.7768Z" fill="#8B2222"/>
<path d="M20.6019 56.0416C21.8038 56.0416 22.7782 55.0679 22.7782 53.8667C22.7782 52.6656 21.8038 51.6918 20.6019 51.6918C19.4 51.6918 18.4257 52.6656 18.4257 53.8667C18.4257 55.0679 19.4 56.0416 20.6019 56.0416Z" fill="#8B2222"/>
<path d="M167.325 74.875C168.527 74.875 169.501 73.9012 169.501 72.7001C169.501 71.4989 168.527 70.5252 167.325 70.5252C166.123 70.5252 165.148 71.4989 165.148 72.7001C165.148 73.9012 166.123 74.875 167.325 74.875Z" fill="#8B2222"/>
</g>
<defs>
<clipPath id="clip0_34_114">
<rect width="176" height="113" fill="white"/>
</clipPath>
</defs>
</svg>
