<svg width="72" height="72" viewBox="0 0 72 72" fill="none" xmlns="http://www.w3.org/2000/svg">
<path d="M54.7668 23.9004C53.7732 23.9004 52.8012 23.9904 51.8544 24.1452C49.4928 16.4232 42.1776 10.8 33.5124 10.8C22.932 10.8 14.3604 19.1808 14.3604 29.5164C14.3604 30.438 14.4324 31.3452 14.5656 32.238C14.0532 32.1746 13.5375 32.1421 13.0212 32.1408C5.8284 32.1408 0 37.836 0 44.8668C0 51.8976 5.8284 57.6 13.0212 57.6H28.8V43.2H19.8L36 25.2L52.2 43.2H43.2V57.6H54.7668C64.2816 57.6 72 50.0544 72 40.752C72 31.4424 64.2816 23.9004 54.7668 23.9004V23.9004Z" fill="#B6C0E8"/>
</svg>
